<svg id="Layer_1" data-name="Layer 1" xmlns="http://www.w3.org/2000/svg" viewBox="0 0 1000 1000"><defs><style>.cls-1{fill:#231f20;}</style></defs><path class="cls-1" d="M477.41,310.8c-39.31,6.85-67.84,36.67-67.84,70.9,0,40.47,35.84,64.48,69.43,83.8l.9.52.3-1a203,203,0,0,0,7.28-39c.16-1.63.29-3.29.4-4.94l0-.5-.42-.26c-22.62-13.71-45.75-31.51-45.75-59.55,0-18.15,10.76-34.27,28.09-42.07a54,54,0,0,1,9.17-3.21l-.2-.79.48.73a57.62,57.62,0,0,1,7-1.3,15.74,15.74,0,0,1,1.64-.19,13.85,13.85,0,0,1,1.47-.13c.79-.07,1.58-.13,2.43-.15.35,0,.71,0,1.09,0,.55,0,1.1,0,1.67,0,1,0,1.93,0,2.87,0l2.51.11c1.55.09,3.06.22,4.5.39.46.05.93.11,1.39.18,1.76.23,3.1.44,4.35.69,2,.37,3.82.77,5.47,1.21a74.24,74.24,0,0,1,15.7,6.09l.2.16c33.33,17.79,47,57.63,54.3,86.05l.21.79,3.23-.81L579.15,320.1l-.09-.73h-3.35l.08.89c.17,2.08-.17,3.55-1,4.49s-2.78,1.6-5.59,1.6c-7.12,0-15.35-3-24.87-6.37-8.95-3.2-19.09-6.84-30.73-8.92a104.9,104.9,0,0,0-19-1.74A99.83,99.83,0,0,0,477.41,310.8Z"/><path class="cls-1" d="M556.33,615.22c34.54-13.74,56.86-43.76,56.86-76.47,0-19.25-6.69-36.06-20.45-51.4l-.72-.81-.58.91A161.53,161.53,0,0,0,574,526.51c-.83,2.7-1.64,5.58-2.55,9.06l0,.12.08.47a55.67,55.67,0,0,1,5.53,24.39,54,54,0,0,1-12.21,34.82c-.88,1.11-1.74,2.11-2.64,3.07-.49.56-1,1.09-1.6,1.7-.36.37-.72.73-1.14,1.1-.64.65-1.3,1.24-2,1.84s-1.47,1.28-2.17,1.8c-.29.23-.59.45-1,.74-1.13.88-2.22,1.66-3.31,2.38l-.6.39c-.91.59-1.84,1.13-2.77,1.66l-.59.35c-.41.23-.81.47-1.22.69-1.65.88-3.53,1.75-5.91,2.74l-1,.39c-.6.24-1.21.49-1.83.71-.4.15-.81.27-1.22.39l-.95.3c-.85.26-1.69.52-2.56.76s-1.95.48-3.06.71l-1.77.39c-.62.12-1.25.22-2,.34-1.3.2-2.6.37-3.92.5l-1.31.11a70.63,70.63,0,0,1-8.69.06l-.94-.06a66,66,0,0,1-8-1.06c-33.46-6.5-56-37.36-66.46-55.17-1.84-3.11-3.63-6.36-5.31-9.66-.93-1.83-1.83-3.66-2.69-5.45l-1.36-3c-.22-.46-.43-.92-.63-1.39-.72-1.59-1.37-3.17-2-4.74a164.48,164.48,0,0,1-7.83-23.87l-.15-.63H413l4.22,36.89a95.67,95.67,0,0,1-9.54,2.4,106.37,106.37,0,0,1-20.76,2H356.35v.82H354.6v-.82H334.9V254.53h52c35.62,0,64.84,16.56,84.5,47.89l.31.49.56-.12a107.89,107.89,0,0,1,22.34-2.32c3.35,0,6.42.13,9.39.41l2.06.19-1.37-1.55c-27.61-31.2-67.88-48.38-113.42-48.38H246.47v3.39H260c20.31,0,37.12,2.79,37.12,37.12V518.08c0,33.92-16.81,36.68-37.12,36.68H246.47v3.39H391.25c5.8,0,11.51-.27,17-.79,3.38-.34,6.6-.75,9.61-1.21l5.38,47.31,2.64-.67.27-.12c8.09-5.65,17.67-1.21,30.94,5,14.31,6.64,32.14,14.9,56.87,15.24.54,0,1,0,1.57,0A110.13,110.13,0,0,0,556.33,615.22Z"/><path class="cls-1" d="M750.24,633.37l-.15.63c-9.91,41.31-36.23,110.62-101.3,110.62-43.23,0-81.39-50.28-90.74-119.56l-.14-1-1,.36a118.43,118.43,0,0,1-40.83,7.33h-1l.24,1c16.24,68.37,71.12,116.12,133.46,116.12,31.88,0,52.88-11.42,68.22-19.76,7.92-4.31,14.17-7.71,19-7.71a7.87,7.87,0,0,1,4.33,1.17l2.92.78,10.13-89.06.11-.91Z"/><path class="cls-1" d="M567.2,465.51c-2.73-1.87-5.55-3.73-8.63-5.65-4-2.52-8.18-5-12.42-7.43q-4.42-2.51-8.89-4.95c.83-3.25,1.58-6.63,2.23-10.07a173,173,0,0,0,3.07-32.77c0-26.92-6.09-53-17.62-75.38l-.12-.25-.25-.11a68.93,68.93,0,0,0-30-6.47,53.27,53.27,0,0,0-11.28,1.18l-.95.21.37.9c9.54,23.35,14.58,51,14.58,79.92,0,3.66-.07,7.2-.22,10.55-.17,3.88-.44,7.79-.78,11.63a212.06,212.06,0,0,1-8.3,43.07c-.94,3.13-2.05,6.41-3.39,10-10.55,28.27-27.22,49.72-48.21,62l-.64.38.31.67c1,2.28,2.25,4.72,3.71,7.48l.32.6.65-.2a140.3,140.3,0,0,0,74-53.91c1.83-2.6,3.62-5.35,5.32-8.17,2.76,1.65,5.51,3.36,8.22,5.09.21.12.41.25.76.48,2.74,1.74,5.44,3.54,8,5.36-1.73,2.67-3.43,5.48-5.06,8.37a171.71,171.71,0,0,0-21.45,83.8c0,5.58.27,11.32.81,17l.07.7.7,0c1.1.07,2.24.11,3.37.11a54.83,54.83,0,0,0,38.93-16c.41-.4.79-.8,1.17-1.23l.21-.37v-.31a239.75,239.75,0,0,1,6.1-54.41c1-4.51,2.26-9.06,3.63-13.52a168.44,168.44,0,0,1,19.69-43.26c1.92-3,4-5.83,6.06-8.53,16.49-21.32,36.37-32.58,57.48-32.58,45,0,75.52,31.93,90.83,94.91l.19.8,3.22-.82-9.67-88.39-.08-.73h-3.37l.07.89c.16,2-.19,3.44-1.09,4.41-1,1.12-2.83,1.67-5.5,1.67-7.08,0-14.36-2.8-22.78-6-12.72-4.88-28.54-11-51.82-11a126.06,126.06,0,0,0-73.33,23.86C572.72,461.11,569.94,463.24,567.2,465.51Z"/></svg>